<svg aria-hidden="true" style="position: absolute; width: 0; height: 0; overflow: hidden;" version="1.1"
     xmlns="http://www.w3.org/2000/svg" xmlns:xlink="http://www.w3.org/1999/xlink">
    <defs>
        <symbol id="icon-copy_to_clip" viewBox="0 0 24 24">
            <path d="M18.984 21v-14.016h-10.969v14.016h10.969zM18.984 5.016q0.797 0 1.406 0.586t0.609 1.383v14.016q0 0.797-0.609 1.406t-1.406 0.609h-10.969q-0.797 0-1.406-0.609t-0.609-1.406v-14.016q0-0.797 0.609-1.383t1.406-0.586h10.969zM15.984 0.984v2.016h-12v14.016h-1.969v-14.016q0-0.797 0.586-1.406t1.383-0.609h12z"></path>
        </symbol>
        <symbol id="icon-phone" viewBox="0 0 32 32">
            <path d="M8.827 14.386c1.97 3.797 4.99 6.817 8.675 8.734l0.112 0.053 2.933-2.933c0.24-0.24 0.572-0.389 0.938-0.389 0.151 0 0.296 0.025 0.431 0.072l-0.009-0.003c1.417 0.482 3.050 0.76 4.748 0.76 0.004 0 0.008 0 0.012 0h-0.001c0.736 0.002 1.331 0.598 1.333 1.333v4.654c-0.002 0.736-0.598 1.331-1.333 1.333h-0c-0.001 0-0.001 0-0.002 0-12.517 0-22.665-10.147-22.665-22.665 0-0.001 0-0.002 0-0.003v0c0.002-0.736 0.598-1.332 1.333-1.333h4.667c0.736 0.002 1.332 0.598 1.333 1.333v0c0 0.006 0 0.014 0 0.022 0 1.694 0.278 3.324 0.791 4.845l-0.031-0.107c0.041 0.122 0.064 0.263 0.064 0.409 0 0.372-0.152 0.709-0.397 0.951l-0 0z"></path>
        </symbol>
        <symbol id="icon-manage_accounts_black_24dp" viewBox="0 0 32 32">
            <path d="M18.488 10.53c0 3.133-2.285 5.672-5.105 5.672s-5.105-2.539-5.105-5.672c0-3.133 2.285-5.672 5.105-5.672s5.105 2.539 5.105 5.672z"></path>
            <path d="M14.229 17.36c-0.296-0.014-0.589-0.027-0.896-0.027-0.004 0-0.009 0-0.013 0-3.248 0-6.286 0.902-8.876 2.47l0.077-0.043c-1.12 0.697-1.855 1.922-1.855 3.319 0 0.019 0 0.039 0 0.058l-0-0.003v3.534h12.346c-1.051-1.484-1.68-3.332-1.68-5.326 0-0.002 0-0.005 0-0.007v0c0.006-1.444 0.336-2.81 0.92-4.030l-0.024 0.057z"></path>
            <path d="M27.666 21.333c-0.007-0.302-0.035-0.592-0.085-0.875l0.005 0.035 1.52-1.347-1.333-2.306-1.933 0.654c-0.41-0.347-0.887-0.631-1.406-0.829l-0.033-0.011-0.4-1.988h-2.667l-0.4 1.987c-0.553 0.209-1.030 0.493-1.447 0.846l0.007-0.006-1.933-0.654-1.333 2.308 1.52 1.347c-0.044 0.248-0.073 0.538-0.080 0.833l-0 0.007c0.007 0.302 0.036 0.592 0.085 0.875l-0.005-0.035-1.52 1.347 1.333 2.306 1.933-0.654c0.41 0.347 0.887 0.63 1.406 0.828l0.033 0.011 0.4 1.987h2.666l0.4-1.987c0.553-0.209 1.030-0.493 1.447-0.846l-0.007 0.006 1.933 0.654 1.333-2.306-1.519-1.345c0.044-0.248 0.073-0.538 0.079-0.833l0-0.006zM22.666 24c-1.473 0-2.666-1.194-2.666-2.666s1.194-2.666 2.666-2.666c1.473 0 2.666 1.194 2.666 2.666v0c-0.003 1.471-1.195 2.663-2.666 2.666h-0z"></path>
        </symbol>
        <symbol id="icon-arr-left" viewBox="0 0 32 32">
            <path d="M26.667 14.667h-16.226l7.453-7.453-1.894-1.88-10.667 10.667 10.667 10.667 1.88-1.88-7.44-7.453h16.226z"></path>
        </symbol>
        <symbol id="icon-stars" viewBox="0 0 32 32">
            <path d="M25.334 12.004l1.667-3.667 3.667-1.667-3.667-1.667-1.667-3.67-1.667 3.667-3.667 1.667 3.667 1.667zM15.334 12.671l-3.33-7.337-3.334 7.333-7.337 3.334 7.333 3.334 3.334 7.333 3.334-7.333 7.333-3.334zM25.334 20.004l-1.667 3.667-3.667 1.667 3.667 1.667 1.667 3.667 1.667-3.667 3.667-1.667-3.667-1.667z"></path>
        </symbol>
        <symbol id="icon-plane" viewBox="0 0 32 32">
            <path d="M25.615 5.101l-11.759 16.878v7.879l3.859-5.098 10.415 7.507 2.109-32.267-28.691 13.11 8.155 5.876z"></path>
        </symbol>
        <symbol id="icon-checklist" viewBox="0 0 32 32">
            <path d="M14.667 9.333h-12v2.667h12zM14.667 20.004h-12v2.66h12zM21.787 14.67l-4.72-4.72 1.879-1.883 2.827 2.827 5.655-5.653 1.907 1.88zM21.787 25.341l-4.72-4.72 1.879-1.887 2.827 2.827 5.653-5.653 1.907 1.88z"></path>
        </symbol>
        <symbol id="icon-cc" viewBox="0 0 32 32">
            <path d="M26.635 5.411h-21.27c-0.004-0-0.008-0-0.013-0-1.454 0-2.633 1.179-2.633 2.633 0 0.005 0 0.010 0 0.015v-0.001l-0.014 15.883c0 0.002 0 0.005 0 0.007 0 1.458 1.182 2.64 2.64 2.64 0.007 0 0.013-0 0.020-0h21.269c0.006 0 0.012 0 0.019 0 1.458 0 2.64-1.182 2.64-2.64 0-0.003 0-0.005 0-0.008v0-15.883c0-0.002 0-0.005 0-0.007 0-1.458-1.182-2.64-2.64-2.64-0.007 0-0.014 0-0.020 0h0.001zM26.635 23.942h-21.27v-7.942h21.27zM26.635 10.706h-21.27v-2.647h21.27z"></path>
        </symbol>
        <symbol id="icon-calendar" viewBox="0 0 32 32">
            <path d="M11.466 14.56h-3.022v2.88h3.022zM17.511 14.56h-3.022v2.88h3.022zM23.556 14.56h-3.022v2.88h3.022zM26.578 4.48h-1.511v-2.88h-3.022v2.88h-12.090v-2.88h-3.022v2.88h-1.511c-0.020-0-0.044-0.001-0.069-0.001-1.603 0-2.906 1.283-2.939 2.878l-0 0.003-0.015 20.16c0.040 1.6 1.346 2.881 2.952 2.881 0.025 0 0.050-0 0.074-0.001l-0.004 0h21.155c0.019 0 0.041 0.001 0.063 0.001 1.607 0 2.915-1.28 2.959-2.877l0-0.004v-20.16c-0.044-1.6-1.352-2.881-2.959-2.881-0.022 0-0.045 0-0.067 0.001l0.003-0zM26.578 27.52h-21.155v-15.84h21.155z"></path>
        </symbol>
        <symbol id="icon-delete" viewBox="0 0 32 32">
            <path d="M8 25.335c0.004 1.471 1.196 2.662 2.666 2.667h10.668c1.47-0.006 2.66-1.197 2.664-2.666v-16.003h-15.998zM25.331 5.335h-4.665l-1.33-1.335h-6.67l-1.333 1.333h-4.667v2.667h18.667z"></path>
        </symbol>
        <symbol id="icon-doc" viewBox="0 0 32 32">
            <path d="M19.2 1.6h-12.8c-0.042-0.002-0.092-0.003-0.141-0.003-1.625 0-2.953 1.272-3.042 2.875l-0 0.008-0.016 23.040c0.089 1.611 1.418 2.883 3.043 2.883 0.050 0 0.099-0.001 0.148-0.004l-0.007 0h19.216c0.043 0.002 0.093 0.003 0.144 0.003 1.628 0 2.959-1.271 3.056-2.875l0-0.009v-17.28zM22.4 24.64h-12.8v-2.88h12.8zM22.4 18.88h-12.8v-2.88h12.8zM17.6 11.68v-7.92l8.8 7.92z"></path>
        </symbol>
        <symbol id="icon-engines" viewBox="0 0 32 32">
            <path d="M24.784 20.97c0.037-0.272 0.058-0.585 0.058-0.904 0-0.011-0-0.023-0-0.034v0.002c0-0.012 0-0.027 0-0.042 0-0.316-0.025-0.626-0.074-0.928l0.004 0.033 2.022-1.571c0.109-0.090 0.177-0.225 0.177-0.377 0-0.085-0.021-0.164-0.059-0.233l0.001 0.003-1.91-3.31c-0.085-0.149-0.243-0.248-0.424-0.248-0.059 0-0.115 0.010-0.167 0.030l0.003-0.001-2.38 0.957c-0.466-0.364-0.998-0.678-1.568-0.919l-0.046-0.017-0.358-2.531c-0.037-0.232-0.236-0.407-0.476-0.407-0.001 0-0.002 0-0.002 0h-3.824c-0.237 0.001-0.433 0.177-0.465 0.405l-0 0.002-0.361 2.531c-0.616 0.261-1.147 0.574-1.63 0.948l0.016-0.012-2.381-0.956c-0.050-0.020-0.108-0.031-0.169-0.031-0.18 0-0.337 0.1-0.418 0.248l-0.001 0.002-1.9 3.306c-0.044 0.068-0.070 0.152-0.070 0.241 0 0.15 0.073 0.283 0.185 0.365l0.001 0.001 2.022 1.571c-0.057 0.299-0.090 0.642-0.090 0.994 0 0.31 0.025 0.614 0.074 0.911l-0.004-0.032-2.022 1.571c-0.109 0.090-0.177 0.225-0.177 0.377 0 0.085 0.021 0.164 0.059 0.233l-0.001-0.003 1.912 3.306c0.085 0.149 0.243 0.248 0.424 0.248 0.059 0 0.115-0.010 0.167-0.029l-0.003 0.001 2.38-0.956c0.466 0.364 0.997 0.678 1.567 0.919l0.046 0.017 0.358 2.53c0.040 0.231 0.239 0.405 0.478 0.407h3.825c0.001 0 0.002 0 0.004 0 0.237 0 0.432-0.176 0.462-0.405l0-0.002 0.358-2.53c0.616-0.256 1.148-0.57 1.628-0.947l-0.015 0.011 2.38 0.956c0.050 0.020 0.108 0.031 0.169 0.031 0.18 0 0.337-0.1 0.418-0.248l0.001-0.003 1.912-3.306c0.042-0.068 0.066-0.15 0.066-0.238 0-0.151-0.072-0.285-0.184-0.369l-0.001-0.001zM17.673 23.621c-1.98 0-3.586-1.605-3.586-3.586s1.605-3.586 3.586-3.586c1.98 0 3.586 1.605 3.586 3.586v0c-0.006 1.978-1.608 3.58-3.585 3.586h-0.001z"></path>
            <path d="M14.058 6.827c-0.048-0.13-0.113-0.275-0.188-0.417-0.002-0.003-0.003-0.006-0.005-0.008l0 0c-0.003-0.005-0.006-0.011-0.009-0.016-0.074-0.139-0.158-0.27-0.251-0.392l0.010 0.014 0.523-1.176c0.026-0.065 0.025-0.14-0.011-0.207-0.020-0.038-0.048-0.068-0.082-0.090l0.001 0.001-1.618-1.010c-0.072-0.046-0.165-0.052-0.245-0.010-0.026 0.014-0.048 0.032-0.067 0.052l0.001-0.001-0.827 0.981c-0.291-0.050-0.599-0.063-0.907-0.035l-0.024 0.003-0.755-1.037c-0.071-0.094-0.2-0.125-0.306-0.069-0 0-0.001 0-0.001 0.001l0-0-1.689 0.898c-0.105 0.056-0.15 0.18-0.11 0.288l0 0.001 0.435 1.202c-0.211 0.259-0.373 0.522-0.498 0.799l0.005-0.009-1.274 0.139c-0.027 0.003-0.055 0.012-0.082 0.026-0.080 0.043-0.126 0.125-0.126 0.21l0 0.001-0.064 1.904c-0.003 0.040 0.005 0.083 0.026 0.123 0.035 0.066 0.098 0.108 0.167 0.118l0.001 0 1.263 0.219c0.045 0.145 0.111 0.305 0.194 0.46 0.073 0.137 0.156 0.265 0.247 0.385l-0.010-0.013-0.524 1.169c-0.026 0.065-0.025 0.14 0.011 0.207 0.020 0.038 0.048 0.068 0.082 0.090l-0.001-0.001 1.62 1.011c0.072 0.046 0.165 0.052 0.245 0.010 0.026-0.014 0.048-0.032 0.067-0.052l-0.001 0.001 0.824-0.983c0.291 0.050 0.599 0.063 0.907 0.035l0.024-0.003 0.752 1.033c0.072 0.093 0.201 0.123 0.307 0.068l0-0 1.688-0.898c0-0 0.001-0.001 0.002-0.001 0.105-0.056 0.149-0.18 0.108-0.288l-0-0.001-0.436-1.201c0.213-0.257 0.374-0.52 0.498-0.798l-0.004 0.009 1.276-0.137c0.027-0.003 0.055-0.012 0.082-0.026 0.079-0.042 0.125-0.123 0.126-0.207l-0-0.001 0.071-1.905c0.002-0.040-0.006-0.082-0.027-0.121-0.035-0.066-0.098-0.108-0.166-0.12l-0.001-0zM11.543 9.665c-0.874 0.465-1.96 0.133-2.424-0.741s-0.133-1.96 0.741-2.424c0.874-0.465 1.96-0.133 2.424 0.741v0c0.462 0.874 0.13 1.957-0.741 2.424l-0 0z"></path>
        </symbol>
        <symbol id="icon-forward" viewBox="0 0 32 32">
            <path d="M26.564 5.582h-20.869c-1.439 0.004-2.604 1.17-2.609 2.608v15.651c0.004 1.439 1.17 2.604 2.608 2.609h11.739v-2.609h-11.739v-13.042l10.438 6.521 10.438-6.521v6.521h2.609v-9.13c-0.004-1.442-1.174-2.609-2.616-2.609 0 0 0 0 0 0v0zM16.126 14.712l-10.43-6.521h20.869zM25.258 19.93l5.218 5.218-5.218 5.217v-3.913h-5.215v-2.609h5.215z"></path>
        </symbol>
        <symbol id="icon-clock" viewBox="0 0 31 32">
            <path d="M19.89 25.609l1.324 2.3c-1.195 0.561-2.583 0.954-4.043 1.106l-0.056 0.005v-2.671c1.030-0.127 1.967-0.387 2.84-0.766l-0.066 0.026zM5.307 17.188h-2.671c0.154 1.516 0.548 2.905 1.144 4.18l-0.033-0.079 2.3-1.322c-0.353-0.809-0.614-1.747-0.735-2.729l-0.005-0.050zM19.89 6.121l1.324-2.3c-1.196-0.563-2.585-0.957-4.046-1.106l-0.055-0.005v2.671c1.031 0.127 1.968 0.387 2.843 0.766l-0.066-0.026zM26.276 14.543h2.671c-0.154-1.515-0.548-2.904-1.144-4.179l0.033 0.079-2.3 1.322c0.353 0.808 0.613 1.747 0.735 2.728l0.005 0.050zM11.693 25.609l-1.323 2.3c1.195 0.561 2.583 0.954 4.043 1.106l0.056 0.005v-2.671c-1.030-0.127-1.967-0.387-2.841-0.766l0.066 0.026zM14.469 5.381v-2.671c-1.515 0.154-2.904 0.548-4.179 1.144l0.079-0.033 1.322 2.3c0.808-0.353 1.747-0.614 2.728-0.735l0.050-0.005zM24.2 9.48l2.3-1.335c-0.848-1.162-1.84-2.153-2.963-2.975l-0.038-0.027-1.337 2.3c0.775 0.591 1.446 1.262 2.019 2.011l0.019 0.025zM6.047 11.767l-2.3-1.323c-0.563 1.196-0.956 2.584-1.106 4.045l-0.005 0.055h2.671c0.127-1.031 0.387-1.968 0.766-2.843l-0.026 0.066zM26.276 17.188c-0.127 1.031-0.387 1.968-0.766 2.843l0.026-0.066 2.3 1.324c0.561-1.195 0.954-2.583 1.106-4.043l0.005-0.056zM22.177 24.274l1.335 2.3c1.162-0.848 2.153-1.84 2.975-2.963l0.027-0.038-2.3-1.337c-0.591 0.775-1.262 1.446-2.011 2.019l-0.025 0.019zM9.406 7.457l-1.322-2.311c-1.165 0.849-2.157 1.845-2.975 2.976l-0.027 0.039 2.301 1.335c0.584-0.779 1.25-1.45 1.998-2.020l0.025-0.018zM7.383 22.251l-2.301 1.322c0.848 1.162 1.84 2.153 2.963 2.975l0.038 0.027 1.338-2.3c-0.779-0.584-1.45-1.25-2.020-1.998l-0.018-0.025zM17.113 9.255h-2.644v7.153l5.672 5.672 1.864-1.864-4.892-4.892z"></path>
        </symbol>
        <symbol id="icon-home" viewBox="0 0 32 32">
            <path d="M13.337 26.666v-7.998h5.334v7.998h6.661v-10.671h4l-13.332-11.995-13.334 12h4v10.665z"></path>
        </symbol>
        <symbol id="icon-chart" viewBox="0 0 32 32">
            <path d="M11.579 23.555h-2.948v-10.578h2.947zM17.474 23.555h-2.947v-15.11h2.947zM23.368 23.555h-2.947v-6.044h2.947zM27.052 26.729h-22.105v-21.306h22.106zM27.053 2.4h-22.106c-1.633 0.026-2.947 1.357-2.947 2.994 0 0.010 0 0.020 0 0.030v-0.002 21.155c-0 0.008-0 0.018-0 0.028 0 1.637 1.314 2.968 2.945 2.994l0.003 0h22.106c1.633-0.026 2.947-1.357 2.947-2.994 0-0.010-0-0.020-0-0.030v0.002-21.155c0-0.008 0-0.018 0-0.028 0-1.637-1.314-2.968-2.945-2.994l-0.003-0z"></path>
        </symbol>
        <symbol id="icon-link" viewBox="0 0 32 32">
            <path d="M5.201 16c0.002-2.282 1.851-4.132 4.133-4.133h5.334v-2.533h-5.335c-3.682 0-6.667 2.985-6.667 6.667s2.985 6.667 6.667 6.667v0h5.334v-2.534h-5.334c-2.282-0.002-4.131-1.852-4.133-4.133v-0zM10.667 17.333h10.671v-2.666h-10.671zM22.667 9.333h-5.333v2.534h5.334c2.283 0 4.133 1.851 4.133 4.133s-1.851 4.133-4.133 4.133v0h-5.334v2.534h5.334c3.682-0 6.667-2.985 6.667-6.667s-2.985-6.667-6.667-6.667c-0 0-0 0-0 0h0z"></path>
        </symbol>
        <symbol id="icon-lock" viewBox="0 0 32 32">
            <path d="M25.6 10.666h-1.6v-2.818c0-3.89-3.584-7.048-8-7.048s-8 3.158-8 7.048v2.819h-1.6c-0.050-0.003-0.109-0.005-0.168-0.005-1.603 0-2.916 1.241-3.032 2.814l-0.001 0.010v14.094c0.116 1.583 1.429 2.824 3.032 2.824 0.059 0 0.118-0.002 0.176-0.005l-0.008 0h19.2c0.050 0.003 0.109 0.005 0.168 0.005 1.603 0 2.916-1.241 3.032-2.814l0.001-0.010v-14.095c-0.116-1.583-1.429-2.824-3.032-2.824-0.059 0-0.118 0.002-0.176 0.005l0.008-0zM16 23.352c-0.050 0.003-0.109 0.005-0.168 0.005-1.603 0-2.916-1.241-3.032-2.814l-0.001-0.010c0.116-1.583 1.429-2.824 3.032-2.824 0.059 0 0.118 0.002 0.176 0.005l-0.008-0c0.050-0.003 0.109-0.005 0.168-0.005 1.603 0 2.916 1.241 3.032 2.814l0.001 0.010c-0.116 1.583-1.429 2.824-3.032 2.824-0.059 0-0.118-0.002-0.176-0.005l0.008 0zM20.96 10.666h-9.92v-2.818c0-2.41 2.224-4.37 4.96-4.37s4.96 1.962 4.96 4.37z"></path>
        </symbol>
        <symbol id="icon-logout" viewBox="0 0 32 32">
            <path d="M23.060 8.678l-1.991 2.062 3.642 3.793h-14.358v2.927h14.359l-3.642 3.778 1.991 2.080 7.060-7.318zM4.705 5.75h11.295v-2.929h-11.295c-1.567 0.035-2.824 1.313-2.824 2.886 0 0.015 0 0.030 0 0.045l-0-0.002v20.501c-0 0.013-0 0.028-0 0.043 0 1.572 1.257 2.851 2.821 2.886l0.003 0h11.295v-2.929h-11.295z"></path>
        </symbol>
        <symbol id="icon-mail" viewBox="0 0 32 32">
            <path d="M26.667 5.334h-21.333c-1.467 0.005-2.654 1.196-2.654 2.663 0 0.001 0 0.003 0 0.004v-0l-0.013 16c0.004 1.471 1.196 2.662 2.666 2.667h21.334c1.471-0.004 2.662-1.196 2.667-2.666v-16c-0.004-1.471-1.196-2.662-2.666-2.667h-0zM26.667 24h-21.333v-13.333l10.671 6.666 10.671-6.666zM15.996 14.667l-10.663-6.666h21.333z"></path>
        </symbol>
        <symbol id="icon-dollar" viewBox="0 0 32 32">
            <path d="M16 2.006c-7.729 0-13.994 6.266-13.994 13.994s6.265 13.994 13.994 13.994c7.729 0 13.994-6.265 13.994-13.994v0c-0.003-7.728-6.267-13.991-13.994-13.994h-0zM17.974 24.523v2.673h-3.737v-2.701c-2.393-0.504-4.422-2.043-4.576-4.758h2.745c0.14 1.47 1.147 2.617 3.709 2.617 2.743 0 3.36-1.371 3.36-2.225 0-1.162-0.616-2.253-3.737-2.995-3.47-0.84-5.85-2.267-5.85-5.136 0-2.407 1.946-3.974 4.352-4.492v-2.7h3.734v2.728c2.254 0.456 3.935 2.396 3.989 4.738l0 0.006h-2.743c-0.070-1.554-0.896-2.617-3.106-2.617-2.099 0-3.36 0.952-3.36 2.295 0 1.175 0.91 1.946 3.737 2.673s5.85 1.946 5.85 5.472c-0.014 2.561-1.934 3.96-4.366 4.422z"></path>
        </symbol>
        <symbol id="icon-payment" viewBox="0 0 32 32">
            <path d="M26.667 5.334h-21.333c-0.002 0-0.004 0-0.006 0-1.463 0-2.648 1.186-2.648 2.648 0 0.007 0 0.013 0 0.020v-0.001l-0.013 16c0 0.003-0 0.006-0 0.009 0 1.468 1.19 2.657 2.658 2.657 0.003 0 0.007 0 0.010-0h21.333c0.003 0 0.006 0 0.009 0 1.468 0 2.657-1.19 2.657-2.657 0-0.003 0-0.007-0-0.010v0-16c0-0.003 0-0.006 0-0.009 0-1.468-1.19-2.658-2.657-2.658-0.003 0-0.007 0-0.010 0h0zM26.667 24h-21.333v-7.996h21.333zM26.667 10.667h-21.333v-2.666h21.333z"></path>
        </symbol>
        <symbol id="icon-money" viewBox="0 0 32 32">
            <path d="M25.361 18.71v-10.838c0-0.003 0-0.006 0-0.010 0-1.482-1.194-2.685-2.673-2.7h-18.723c-1.48 0.014-2.674 1.218-2.674 2.7 0 0.003 0 0.007 0 0.010v-0.001 10.838c0 0.003-0 0.006-0 0.010 0 1.482 1.194 2.685 2.673 2.7h18.721c1.481-0.014 2.676-1.217 2.676-2.7 0-0.003 0-0.007-0-0.010v0.001zM13.326 17.354c-0.016 0-0.034 0-0.053 0-2.245 0-4.065-1.82-4.065-4.065s1.82-4.065 4.065-4.065c2.245 0 4.065 1.82 4.065 4.065 0 0 0 0 0 0v-0c0 0.009 0 0.020 0 0.031 0 2.22-1.794 4.021-4.011 4.033h-0.001zM30.71 9.226v14.903c0 0.004 0 0.008 0 0.013 0 1.482-1.194 2.685-2.673 2.7h-22.734v-2.713h22.733v-14.903z"></path>
        </symbol>
        <symbol id="icon-people" viewBox="0 0 32 32">
            <path d="M22 17.337c-2.181 0.057-4.234 0.542-6.099 1.374l0.102-0.040c-1.763-0.798-3.817-1.284-5.979-1.333l-0.018-0c-2.899 0-8.672 1.436-8.672 4.33v3.667h29.334v-3.667c0-2.893-5.774-4.33-8.667-4.33zM16.666 23.334h-13.333v-1.667c0-0.72 3.413-2.337 6.666-2.337s6.666 1.613 6.666 2.337zM28.666 23.334h-9.999v-1.667c-0.019-0.635-0.28-1.206-0.694-1.627l0 0c1.197-0.428 2.579-0.685 4.017-0.706l0.010-0c3.253 0 6.666 1.613 6.666 2.337zM10 16c2.578 0 4.667-2.089 4.667-4.667s-2.090-4.667-4.667-4.667c-2.578 0-4.667 2.089-4.667 4.667v0c0.004 2.576 2.091 4.663 4.667 4.667h0zM10 8.667c1.472 0.001 2.665 1.195 2.665 2.667s-1.194 2.667-2.667 2.667-2.667-1.194-2.667-2.667v0c0.004-1.472 1.197-2.664 2.669-2.667h0zM22 16c2.578 0 4.667-2.089 4.667-4.667s-2.090-4.667-4.667-4.667c-2.578 0-4.667 2.089-4.667 4.667v0c0.004 2.576 2.091 4.663 4.667 4.667h0zM22 8.667c1.473 0 2.667 1.194 2.667 2.667s-1.194 2.667-2.667 2.667c-1.473 0-2.667-1.194-2.667-2.667v0c0.004-1.471 1.196-2.662 2.666-2.667h0z"></path>
        </symbol>
        <symbol id="icon-person" viewBox="0 0 32 32">
            <path d="M16 16c3.114 0 5.638-2.524 5.638-5.638s-2.524-5.638-5.638-5.638c-3.114 0-5.638 2.524-5.638 5.638v0c0 0 0 0.001 0 0.002 0 3.113 2.523 5.636 5.636 5.636 0.001 0 0.001 0 0.002 0h-0zM16 18.819c-3.763-0.001-11.276 1.888-11.276 5.638v2.819h22.552v-2.819c0-3.75-7.512-5.638-11.276-5.638z"></path>
        </symbol>
        <symbol id="icon-check" viewBox="0 0 32 32">
            <path d="M4 13.334h14.667v2.667h-14.667v-2.667z"></path>
            <path d="M4 8h14.667v2.667h-14.667v-2.667z"></path>
            <path d="M4 18.666h9.333v2.667h-9.333v-2.667z"></path>
            <path d="M27.454 15.906l-5.667 5.653-2.827-2.827-1.879 1.88 4.707 4.72 7.547-7.547z"></path>
        </symbol>
        <symbol id="icon-receipt" viewBox="0 0 32 32">
            <path d="M25.066 23.2h-18.133v-2.88h18.133zM25.066 17.44h-18.133v-2.88h18.133zM25.066 11.68h-18.133v-2.88h18.133zM2.4 30.4l2.266-2.16 2.267 2.16 2.266-2.16 2.266 2.16 2.266-2.16 2.267 2.16 2.266-2.16 2.267 2.16 2.266-2.16 2.266 2.16 2.266-2.16 2.267 2.16v-28.8l-2.266 2.16-2.267-2.16-2.266 2.16-2.266-2.16-2.267 2.16-2.266-2.16-2.266 2.16-2.267-2.16-2.266 2.16-2.266-2.16-2.267 2.16-2.266-2.16z"></path>
        </symbol>
        <symbol id="icon-reduce" viewBox="0 0 32 32">
            <path d="M21.672 4.706c0-1.559 1.264-2.824 2.824-2.824s2.824 1.264 2.824 2.824c0 1.559-1.264 2.824-2.824 2.824v0c-1.557-0.007-2.817-1.267-2.824-2.823v-0.001zM28.429 9.767c-1.157-0.518-2.508-0.82-3.929-0.82-0 0-0 0-0.001 0h0c-0.968 0.001-1.902 0.146-2.782 0.414l0.068-0.018c0.802 0.762 1.301 1.837 1.301 3.028 0 0.004 0 0.008-0 0.012v-0.001 0.806h7.068v-0.802c0-0.001 0-0.002 0-0.002 0-1.166-0.702-2.168-1.706-2.606l-0.018-0.007zM7.537 7.537c1.556-0.004 2.816-1.267 2.816-2.824 0-1.559-1.264-2.824-2.824-2.824-1.557 0-2.819 1.26-2.824 2.816v0c0.003 1.562 1.269 2.828 2.831 2.831h0zM10.251 9.346c-0.812-0.25-1.746-0.395-2.714-0.395h-0c-0 0-0 0-0 0-1.421 0-2.772 0.302-3.991 0.845l0.063-0.025c-1.023 0.445-1.725 1.447-1.725 2.614 0 0.001 0 0.001 0 0.002v-0 0.806h7.068v-0.806c0-0.004-0-0.008-0-0.012 0-1.191 0.499-2.266 1.299-3.026l0.002-0.002zM13.192 4.706c0-1.559 1.264-2.824 2.824-2.824s2.824 1.264 2.824 2.824c0 1.559-1.264 2.824-2.824 2.824v0c-1.557-0.007-2.817-1.267-2.824-2.823v-0.001zM21.673 13.188h-11.309v-0.802c0-0.001 0-0.002 0-0.002 0-1.166 0.702-2.168 1.706-2.606l0.018-0.007c1.157-0.518 2.508-0.82 3.93-0.82s2.772 0.302 3.992 0.845l-0.063-0.025c1.022 0.446 1.724 1.447 1.724 2.613 0 0.001 0 0.002 0 0.002v-0zM20.262 21.67c0-1.559 1.264-2.824 2.824-2.824s2.824 1.264 2.824 2.824c0 1.559-1.264 2.824-2.824 2.824v0c-1.557-0.005-2.818-1.264-2.826-2.82v-0.001zM28.744 30.152h-11.312v-0.806c0-0.001 0-0.002 0-0.003 0-1.166 0.702-2.168 1.707-2.606l0.018-0.007c1.157-0.518 2.508-0.82 3.93-0.82s2.772 0.302 3.992 0.845l-0.063-0.025c1.022 0.446 1.724 1.447 1.724 2.613 0 0.001 0 0.002 0 0.002v-0zM6.123 21.672c0-1.559 1.264-2.824 2.824-2.824s2.824 1.264 2.824 2.824c0 1.559-1.264 2.824-2.824 2.824v0c-1.557-0.007-2.817-1.267-2.824-2.823v-0.001zM14.605 30.154h-11.311v-0.806c0-0.002 0-0.003 0-0.005 0-1.166 0.703-2.169 1.708-2.607l0.018-0.007c1.157-0.518 2.508-0.82 3.93-0.82s2.772 0.302 3.992 0.845l-0.063-0.025c1.022 0.446 1.724 1.447 1.724 2.613 0 0.001 0 0.002 0 0.002v-0zM17.079 17.432v-2.824h-2.12v2.824h-3.18l4.241 4.241 4.241-4.241z"></path>
        </symbol>
        <symbol id="icon-reply" viewBox="0 0 32 32">
            <path d="M18.667 12v-5.333l9.333 9.333-9.333 9.334v-5.467c-6.667 0-11.333 2.134-14.667 6.8 1.333-6.667 5.333-13.334 14.667-14.667z"></path>
        </symbol>
        <symbol id="icon-rule" viewBox="0 0 32 32">
            <path d="M22.054 14.667l-4.72-4.72 1.88-1.88 2.827 2.827 5.653-5.653 1.88 1.88zM14.667 9.333h-12v2.667h12zM28 17.881l-1.88-1.88-3.454 3.454-3.454-3.454-1.88 1.88 3.454 3.454-3.454 3.454 1.88 1.88 3.454-3.454 3.454 3.454 1.88-1.88-3.454-3.454zM14.667 20.001h-12v2.663h12z"></path>
        </symbol>
        <symbol id="icon-clock-full" viewBox="0 0 32 32">
            <path d="M15.987 2.667c-7.357 0.009-13.318 5.975-13.318 13.334 0 7.364 5.97 13.334 13.334 13.334s13.334-5.97 13.334-13.334v0c0-0.002 0-0.004 0-0.006 0-7.36-5.967-13.327-13.327-13.327-0.008 0-0.015 0-0.023 0h0.001zM16 26.667c-5.891 0-10.667-4.776-10.667-10.667s4.776-10.667 10.667-10.667c5.891 0 10.667 4.776 10.667 10.667v0c0 0.001 0 0.002 0 0.003 0 5.889-4.774 10.663-10.663 10.663-0.001 0-0.002 0-0.003 0h0z"></path>
            <path d="M16.669 9.333h-2.002v8l7 4.2 1-1.64-5.998-3.559z"></path>
        </symbol>
        <symbol id="icon-settings" viewBox="0 0 32 32">
            <path d="M16 13.334c-1.473 0-2.667 1.194-2.667 2.667s1.194 2.667 2.667 2.667c1.473 0 2.667-1.194 2.667-2.667v0c-0.004-1.471-1.196-2.662-2.666-2.667h-0zM25.334 4h-18.666c-0 0-0 0-0.001 0-1.472 0-2.666 1.194-2.666 2.666 0 0 0 0.001 0 0.001v-0 18.666c0 0 0 0 0 0.001 0 1.472 1.194 2.666 2.666 2.666 0 0 0.001 0 0.001 0h18.666c0 0 0 0 0.001 0 1.472 0 2.666-1.194 2.666-2.666 0-0 0-0.001 0-0.001v0-18.666c0-0 0-0 0-0.001 0-1.472-1.194-2.666-2.666-2.666-0 0-0.001 0-0.001 0h0zM22.997 16c-0.002 0.322-0.026 0.636-0.071 0.943l0.004-0.037 1.974 1.547c0.105 0.086 0.172 0.216 0.172 0.362 0 0.088-0.024 0.17-0.066 0.24l0.001-0.002-1.869 3.227c-0.084 0.139-0.234 0.231-0.406 0.231-0.060 0-0.118-0.011-0.171-0.032l0.003 0.001-2.32-0.935c-0.455 0.354-0.973 0.662-1.527 0.902l-0.046 0.018-0.343 2.468c-0.041 0.226-0.233 0.396-0.467 0.4h-3.731c-0.231-0.004-0.422-0.169-0.467-0.386l-0.001-0.003-0.347-2.467c-0.601-0.254-1.119-0.563-1.588-0.931l0.015 0.011-2.32 0.935c-0.050 0.019-0.107 0.031-0.168 0.031-0.172 0-0.322-0.092-0.405-0.229l-0.001-0.002-1.869-3.227c-0.041-0.068-0.065-0.15-0.065-0.238 0-0.146 0.067-0.276 0.171-0.361l0.001-0.001 1.974-1.547c-0.040-0.274-0.064-0.593-0.067-0.917l-0-0.003c0.002-0.322 0.026-0.636 0.071-0.943l-0.004 0.037-1.97-1.546c-0.105-0.086-0.172-0.216-0.172-0.362 0-0.088 0.024-0.17 0.066-0.24l-0.001 0.002 1.869-3.227c0.084-0.139 0.234-0.231 0.406-0.231 0.060 0 0.118 0.011 0.171 0.032l-0.003-0.001 2.32 0.935c0.455-0.354 0.973-0.662 1.527-0.902l0.046-0.018 0.347-2.467c0.041-0.226 0.233-0.396 0.467-0.4h3.727c0.231 0.004 0.422 0.168 0.467 0.386l0.001 0.003 0.347 2.467c0.601 0.254 1.119 0.563 1.588 0.931l-0.015-0.011 2.32-0.935c0.050-0.019 0.107-0.031 0.168-0.031 0.172 0 0.322 0.092 0.405 0.229l0.001 0.002 1.869 3.227c0.041 0.068 0.065 0.15 0.065 0.238 0 0.146-0.067 0.276-0.171 0.361l-0.001 0.001-1.974 1.547c0.040 0.274 0.064 0.593 0.067 0.917l0 0.003z"></path>
        </symbol>
        <symbol id="icon-settings-empty" viewBox="0 0 32 32">
            <path d="M25.52 17.254c0.050-0.364 0.078-0.784 0.078-1.21 0-0.015-0-0.030-0-0.045v0.002c0-0.017 0-0.036 0-0.056 0-0.423-0.034-0.838-0.1-1.242l0.006 0.044 2.707-2.103c0.145-0.121 0.237-0.302 0.237-0.504 0-0.113-0.029-0.22-0.079-0.312l0.002 0.003-2.557-4.431c-0.114-0.199-0.325-0.332-0.567-0.332-0.079 0-0.154 0.014-0.224 0.039l0.005-0.001-3.186 1.28c-0.624-0.487-1.336-0.907-2.099-1.23l-0.062-0.023-0.48-3.388c-0.050-0.311-0.316-0.545-0.637-0.545-0.001 0-0.002 0-0.003 0h-5.119c-0.317 0.001-0.579 0.236-0.623 0.542l-0 0.003-0.484 3.388c-0.825 0.349-1.536 0.769-2.182 1.27l0.022-0.016-3.187-1.28c-0.067-0.026-0.145-0.042-0.226-0.042-0.241 0-0.451 0.134-0.559 0.332l-0.002 0.003-2.543 4.426c-0.058 0.092-0.093 0.203-0.093 0.323 0 0.201 0.097 0.378 0.247 0.489l0.002 0.001 2.707 2.103c-0.077 0.4-0.12 0.86-0.12 1.33 0 0.415 0.034 0.822 0.1 1.219l-0.006-0.043-2.707 2.103c-0.145 0.121-0.237 0.302-0.237 0.504 0 0.113 0.029 0.22 0.079 0.312l-0.002-0.003 2.56 4.426c0.114 0.199 0.325 0.332 0.567 0.332 0.079 0 0.154-0.014 0.224-0.039l-0.005 0.001 3.186-1.28c0.623 0.487 1.335 0.907 2.098 1.23l0.062 0.023 0.48 3.387c0.054 0.31 0.32 0.542 0.64 0.545h5.121c0.001 0 0.003 0 0.005 0 0.317 0 0.578-0.236 0.618-0.542l0-0.003 0.48-3.387c0.825-0.342 1.537-0.763 2.18-1.268l-0.020 0.015 3.186 1.28c0.067 0.026 0.145 0.042 0.226 0.042 0.241 0 0.451-0.134 0.559-0.332l0.002-0.003 2.56-4.426c0.056-0.091 0.089-0.201 0.089-0.319 0-0.202-0.097-0.381-0.247-0.494l-0.002-0.001zM16 20.803c-2.651 0-4.8-2.149-4.8-4.8s2.149-4.8 4.8-4.8c2.651 0 4.8 2.149 4.8 4.8v0c-0.008 2.648-2.152 4.792-4.799 4.8h-0.001z"></path>
        </symbol>
        <symbol id="icon-settings-star" viewBox="0 0 32 32">
            <path d="M23.198 8.548l-3.36-1.548 3.36-1.548 1.519-3.423 1.52 3.423 3.36 1.548-3.36 1.548-1.52 3.423zM28.59 17.254l-1.086-2.442-1.088 2.442-2.4 1.108 2.4 1.106 1.087 2.443 1.088-2.443 2.4-1.108zM21.567 19.598l2.703 2.088-3.484 6.15-3.12-1.335c-0.248 0.169-0.54 0.343-0.841 0.501l-0.051 0.024-0.418 3.409h-6.968l-0.418-3.423c-0.349-0.178-0.64-0.352-0.92-0.544l0.028 0.018-3.12 1.335-3.486-6.149 2.704-2.088c-0.014-0.16-0.014-0.341-0.014-0.511s0-0.355 0.014-0.526l-2.704-2.088 3.484-6.15 3.12 1.335c0.248-0.169 0.54-0.343 0.841-0.501l0.051-0.024 0.419-3.41h6.968l0.418 3.423c0.349 0.178 0.64 0.352 0.92 0.544l-0.028-0.018 3.12-1.335 3.484 6.15-2.703 2.088c0.014 0.17 0.014 0.341 0.014 0.526s0.001 0.342-0.013 0.513zM17.056 19.069c-0.044-2.275-1.899-4.102-4.181-4.102-2.309 0-4.182 1.872-4.182 4.182s1.872 4.182 4.182 4.182c0 0 0 0 0 0v0c2.313-0.020 4.181-1.9 4.181-4.216 0-0.016-0-0.032-0-0.047l0 0.002z"></path>
        </symbol>
        <symbol id="icon-sliders" viewBox="0 0 32 32">
            <path d="M23.333 2.626c-1.681 0-3.044 1.363-3.044 3.044s1.363 3.044 3.044 3.044c1.681 0 3.044-1.363 3.044-3.044v0c0-1.681-1.363-3.044-3.044-3.044v0zM18.362 4.655c0.487-2.333 2.527-4.061 4.971-4.061s4.483 1.728 4.965 4.028l0.006 0.033h4.159v2.028h-4.159c-0.487 2.333-2.527 4.061-4.971 4.061s-4.483-1.728-4.965-4.028l-0.006-0.033h-18.362v-2.028zM9.126 12.77c-1.681 0-3.044 1.363-3.044 3.044s1.363 3.044 3.044 3.044c1.681 0 3.044-1.363 3.044-3.044v0c0-1.681-1.363-3.044-3.044-3.044v0zM4.159 14.799c0.487-2.333 2.527-4.061 4.971-4.061s4.483 1.728 4.965 4.028l0.006 0.033h18.362v2.033h-18.359c-0.487 2.333-2.527 4.061-4.971 4.061s-4.483-1.728-4.965-4.028l-0.006-0.033h-4.162v-2.033zM23.332 22.916c-1.68 0.001-3.042 1.363-3.042 3.044s1.363 3.044 3.044 3.044 3.044-1.363 3.044-3.044c0-0 0-0.001 0-0.001v0c-0.001-1.68-1.363-3.042-3.044-3.042v0zM18.361 24.945c0.487-2.333 2.527-4.061 4.971-4.061s4.483 1.728 4.965 4.028l0.006 0.033h4.16v2.029h-4.159c-0.487 2.333-2.527 4.061-4.971 4.061s-4.483-1.728-4.965-4.028l-0.006-0.033h-18.362v-2.030z"></path>
        </symbol>
        <symbol id="icon-smart-logo" viewBox="0 0 32 32">
            <path d="M27.699 16.595c-1.060-1.233-2.404-2.192-3.933-2.777l-0.067-0.023c-1.512-0.564-3.352-1.086-5.242-1.468l-0.246-0.042c-1.652-0.317-3.111-0.769-4.496-1.36l0.142 0.054c-0.81-0.373-0.92-0.83-0.92-1.22-0.004-0.041-0.007-0.089-0.007-0.138 0-0.406 0.178-0.771 0.461-1.020l0.002-0.001c0.423-0.284 0.944-0.453 1.504-0.453 0.077 0 0.154 0.003 0.229 0.010l-0.010-0.001c1.571 0.070 3.037 0.445 4.365 1.067l-0.070-0.030c0.155 0.606 0.696 1.047 1.34 1.047 0.763 0 1.381-0.618 1.381-1.381s-0.618-1.381-1.381-1.381c-0.173 0-0.339 0.032-0.492 0.090l0.009-0.003c-1.508-0.722-3.269-1.175-5.127-1.248l-0.026-0.001h-0.023c-0.074-0.004-0.16-0.007-0.248-0.007-0.992 0-1.908 0.33-2.643 0.886l0.011-0.008c-0.689 0.593-1.123 1.466-1.123 2.441 0 0.046 0.001 0.092 0.003 0.138l-0-0.007c-0 0.005-0 0.010-0 0.016 0 1.301 0.809 2.412 1.952 2.859l0.021 0.007c1.358 0.592 2.95 1.089 4.605 1.412l0.149 0.024c2.036 0.403 3.788 0.898 5.482 1.513l-0.256-0.081c1.3 0.499 2.394 1.284 3.246 2.281l0.009 0.011c0.821 1.047 1.317 2.384 1.317 3.836 0 0.132-0.004 0.262-0.012 0.392l0.001-0.018c0.002 0.067 0.004 0.145 0.004 0.224 0 2.209-1.036 4.176-2.648 5.442l-0.015 0.011c-1.866 1.516-4.509 2.274-7.875 2.239-0.031 0-0.068 0-0.104 0-2.807 0-5.457-0.671-7.799-1.862l0.098 0.045c-0.152-0.61-0.695-1.055-1.342-1.055-0.763 0-1.381 0.618-1.381 1.381s0.618 1.381 1.381 1.381c0.171 0 0.335-0.031 0.486-0.088l-0.010 0.003c2.493 1.278 5.439 2.027 8.559 2.027 0.034 0 0.068-0 0.102-0l-0.005 0h0.23c3.699 0 6.666-0.892 8.826-2.653 2.042-1.616 3.34-4.094 3.34-6.876 0-0.079-0.001-0.157-0.003-0.236l0 0.012c0.006-0.12 0.010-0.26 0.010-0.402 0-1.903-0.663-3.651-1.771-5.026l0.012 0.015z"></path>
            <path d="M14.186 19.487c1.653 0.318 3.111 0.77 4.497 1.36l-0.143-0.054c0.808 0.382 0.918 0.83 0.918 1.219 0.004 0.041 0.007 0.088 0.007 0.136 0 0.408-0.179 0.774-0.463 1.023l-0.002 0.001c-0.418 0.284-0.934 0.453-1.489 0.453-0.076 0-0.152-0.003-0.227-0.009l0.010 0.001h-0.017c-1.573-0.072-3.042-0.447-4.373-1.067l0.071 0.030c-0.087-0.353-0.303-0.646-0.593-0.831l-0.005-0.003c-0.211-0.137-0.468-0.218-0.745-0.218-0.764 0-1.383 0.619-1.383 1.383s0.619 1.383 1.383 1.383c0.174 0 0.341-0.032 0.495-0.091l-0.009 0.003c1.508 0.722 3.27 1.175 5.128 1.25l0.026 0.001h0.020c0.074 0.004 0.161 0.007 0.248 0.007 0.994 0 1.911-0.329 2.648-0.885l-0.011 0.008c0.689-0.594 1.123-1.468 1.123-2.443 0-0.046-0.001-0.092-0.003-0.137l0 0.006c0-0.005 0-0.012 0-0.018 0-1.299-0.808-2.41-1.95-2.857l-0.021-0.007c-1.358-0.59-2.95-1.085-4.605-1.407l-0.149-0.024c-2.037-0.404-3.789-0.899-5.483-1.513l0.258 0.082c-1.302-0.5-2.399-1.287-3.253-2.286l-0.009-0.011c-0.821-1.049-1.317-2.388-1.317-3.842 0-0.13 0.004-0.258 0.012-0.386l-0.001 0.018c-0.002-0.066-0.004-0.144-0.004-0.223 0-2.209 1.036-4.176 2.648-5.442l0.015-0.011c1.866-1.516 4.509-2.274 7.875-2.239 0.031-0 0.068-0 0.105-0 2.805 0 5.453 0.67 7.794 1.859l-0.098-0.045c0.149 0.619 0.698 1.071 1.352 1.071 0.767 0 1.389-0.622 1.389-1.389s-0.622-1.389-1.389-1.389c-0.17 0-0.334 0.031-0.485 0.087l0.010-0.003c-2.49-1.28-5.434-2.030-8.552-2.030-0.036 0-0.071 0-0.107 0l0.005-0c-3.807-0.033-6.853 0.852-9.058 2.649-2.041 1.622-3.337 4.105-3.337 6.89 0 0.074 0.001 0.149 0.003 0.223l-0-0.011c-0.006 0.121-0.010 0.262-0.010 0.404 0 1.902 0.663 3.65 1.771 5.024l-0.012-0.015c1.060 1.232 2.405 2.191 3.934 2.777l0.067 0.023c1.511 0.563 3.351 1.085 5.241 1.468l0.248 0.042z"></path>
            <path d="M17.166 15.631c-0.011-0.633-0.526-1.142-1.16-1.142-0.641 0-1.16 0.52-1.16 1.16s0.52 1.16 1.16 1.16c0.008 0 0.015-0 0.023-0l-0.001 0c0.631-0.012 1.139-0.527 1.139-1.16 0-0.007-0-0.013-0-0.020v0.001z"></path>
        </symbol>
        <symbol id="icon-sms" viewBox="0 0 32 32">
            <path d="M26.667 2.667h-21.333c-1.467 0.005-2.654 1.196-2.654 2.663 0 0.001 0 0.003 0 0.004v-0l-0.013 24 5.334-5.334h18.666c1.471-0.004 2.662-1.196 2.667-2.666v-16c-0.004-1.471-1.196-2.662-2.666-2.667h-0zM12 14.667h-2.667v-2.667h2.667zM17.334 14.667h-2.667v-2.667h2.667zM22.668 14.667h-2.667v-2.667h2.667z"></path>
        </symbol>
        <symbol id="icon-tune" viewBox="0 0 32 32">
            <path d="M2.4 23.555v3.022h9.066v-3.022zM2.4 5.422v3.022h15.111v-3.022zM17.511 29.6v-3.022h12.089v-3.022h-12.089v-3.022h-3.022v9.066zM8.445 11.466v3.022h-6.045v3.022h6.045v3.022h3.022v-9.067zM29.6 17.511v-3.022h-15.111v3.022zM20.534 11.466h3.022v-3.022h6.044v-3.022h-6.045v-3.022h-3.022z"></path>
        </symbol>
        <symbol id="icon-upload" viewBox="0 0 32 32">
            <path d="M21.337 24v2.667h-10.671v-2.667zM14.667 10.653v10.681h2.667v-10.681h4.003l-5.337-5.32-5.334 5.32z"></path>
        </symbol>
        <symbol id="icon-graph" viewBox="0 0 32 32">
            <path stroke-linejoin="miter" stroke-linecap="butt" stroke-miterlimit="4" stroke-width="0.4706"
                  d="M2.824 27.765h28.235"></path>
            <path d="M31.111 10.821c-0.005 1.492-1.213 2.7-2.704 2.705h-0c-0.011 0-0.024 0-0.038 0-0.233 0-0.457-0.034-0.668-0.099l0.016 0.004-4.815 4.8c0.060 0.199 0.094 0.428 0.094 0.665 0 0.013-0 0.027-0 0.040l0-0.002c0 1.494-1.211 2.705-2.705 2.705s-2.705-1.211-2.705-2.705v0c-0-0.011-0-0.025-0-0.038 0-0.237 0.035-0.466 0.099-0.682l-0.004 0.017-3.449-3.449c-0.211 0.060-0.453 0.095-0.704 0.095s-0.493-0.035-0.722-0.099l0.019 0.005-6.153 6.17c0.060 0.195 0.094 0.42 0.094 0.652 0 0.013-0 0.026-0 0.040l0-0.002c0 0.001 0 0.001 0 0.002 0 1.494-1.211 2.705-2.705 2.705s-2.705-1.211-2.705-2.705c0-1.494 1.211-2.705 2.705-2.705v0c0.011-0 0.024-0 0.038-0 0.232 0 0.457 0.035 0.668 0.099l-0.016-0.004 6.168-6.154c-0.060-0.199-0.094-0.428-0.094-0.665 0-0.013 0-0.027 0-0.040l-0 0.002c0-1.494 1.211-2.705 2.705-2.705s2.705 1.211 2.705 2.705v0c0 0.011 0 0.025 0 0.038 0 0.237-0.035 0.466-0.099 0.682l0.004-0.017 3.449 3.449c0.211-0.060 0.453-0.095 0.704-0.095s0.493 0.035 0.722 0.099l-0.019-0.005 4.8-4.815c-0.060-0.195-0.094-0.42-0.094-0.652 0-0.013 0-0.027 0-0.040l-0 0.002c0-1.494 1.211-2.705 2.705-2.705s2.705 1.211 2.705 2.705v0z"></path>
        </symbol>
        <symbol id="icon-view" viewBox="0 0 32 32">
            <path d="M2.667 28h25.333v-4h-25.333zM26.667 10.669h-22.667c-0.735 0.002-1.33 0.597-1.333 1.331v8.001c0.004 0.734 0.599 1.329 1.333 1.331h22.667c0.735-0.002 1.331-0.598 1.333-1.333v-7.998c-0.002-0.735-0.598-1.331-1.333-1.333h-0zM2.667 4v4h25.333v-4z"></path>
        </symbol>
        <symbol id="icon-warning" viewBox="0 0 32 32">
            <path d="M0 29.636h32l-16-27.636zM17.454 25.272h-2.909v-2.908h2.909zM17.454 19.454h-2.909v-5.818h2.909z"></path>
        </symbol>
        <symbol id="icon-workspace" viewBox="0 0 32 32">
            <path d="M6.829 17.863c-3.342 0-6.080 2.96-6.080 6.585s2.734 6.585 6.080 6.585 6.080-2.96 6.080-6.585-2.742-6.585-6.080-6.585zM15.939 1.401c-3.342 0-6.080 2.96-6.080 6.585s2.734 6.585 6.080 6.585 6.080-2.96 6.080-6.585-2.738-6.585-6.080-6.585zM25.054 17.863c-3.342 0-6.080 2.96-6.080 6.585s2.734 6.585 6.080 6.585 6.080-2.96 6.080-6.585-2.738-6.585-6.080-6.585z"></path>
        </symbol>
        <symbol id="icon-pencil" viewBox="0 0 32 32">
            <path d="M27 0c2.761 0 5 2.239 5 5 0 1.126-0.372 2.164-1 3l-2 2-7-7 2-2c0.836-0.628 1.874-1 3-1zM2 23l-2 9 9-2 18.5-18.5-7-7-18.5 18.5zM22.362 11.362l-14 14-1.724-1.724 14-14 1.724 1.724z"></path>
        </symbol>
        <symbol id="icon-spinner" viewBox="0 0 32 32">
            <path d="M0 12h12l-4.485-4.485c2.267-2.266 5.28-3.515 8.485-3.515s6.219 1.248 8.485 3.515c2.266 2.267 3.515 5.28 3.515 8.485s-1.248 6.219-3.515 8.485c-2.267 2.266-5.28 3.515-8.485 3.515s-6.219-1.248-8.485-3.515c-0.189-0.189-0.371-0.384-0.545-0.583l-3.010 2.634c2.933 3.349 7.24 5.464 12.041 5.464 8.837 0 16-7.163 16-16s-7.163-16-16-16c-4.418 0-8.418 1.791-11.313 4.687l-4.687-4.687v12z"></path>
        </symbol>
        <symbol id="icon-search" viewBox="0 0 32 32">
            <path d="M31.008 27.231l-7.58-6.447c-0.784-0.705-1.622-1.029-2.299-0.998 1.789-2.096 2.87-4.815 2.87-7.787 0-6.627-5.373-12-12-12s-12 5.373-12 12 5.373 12 12 12c2.972 0 5.691-1.081 7.787-2.87-0.031 0.677 0.293 1.515 0.998 2.299l6.447 7.58c1.104 1.226 2.907 1.33 4.007 0.23s0.997-2.903-0.23-4.007zM12 20c-4.418 0-8-3.582-8-8s3.582-8 8-8 8 3.582 8 8-3.582 8-8 8z"></path>
        </symbol>
        <symbol id="icon-eye" viewBox="0 0 32 32">
            <path d="M16 6c-6.979 0-13.028 4.064-16 10 2.972 5.936 9.021 10 16 10s13.027-4.064 16-10c-2.972-5.936-9.021-10-16-10zM23.889 11.303c1.88 1.199 3.473 2.805 4.67 4.697-1.197 1.891-2.79 3.498-4.67 4.697-2.362 1.507-5.090 2.303-7.889 2.303s-5.527-0.796-7.889-2.303c-1.88-1.199-3.473-2.805-4.67-4.697 1.197-1.891 2.79-3.498 4.67-4.697 0.122-0.078 0.246-0.154 0.371-0.228-0.311 0.854-0.482 1.776-0.482 2.737 0 4.418 3.582 8 8 8s8-3.582 8-8c0-0.962-0.17-1.883-0.482-2.737 0.124 0.074 0.248 0.15 0.371 0.228v0zM16 13c0 1.657-1.343 3-3 3s-3-1.343-3-3 1.343-3 3-3 3 1.343 3 3z"></path>
        </symbol>
        <symbol id="icon-eye-blocked" viewBox="0 0 32 32">
            <path d="M29.561 0.439c-0.586-0.586-1.535-0.586-2.121 0l-6.318 6.318c-1.623-0.492-3.342-0.757-5.122-0.757-6.979 0-13.028 4.064-16 10 1.285 2.566 3.145 4.782 5.407 6.472l-4.968 4.968c-0.586 0.586-0.586 1.535 0 2.121 0.293 0.293 0.677 0.439 1.061 0.439s0.768-0.146 1.061-0.439l27-27c0.586-0.586 0.586-1.536 0-2.121zM13 10c1.32 0 2.44 0.853 2.841 2.037l-3.804 3.804c-1.184-0.401-2.037-1.521-2.037-2.841 0-1.657 1.343-3 3-3zM3.441 16c1.197-1.891 2.79-3.498 4.67-4.697 0.122-0.078 0.246-0.154 0.371-0.228-0.311 0.854-0.482 1.776-0.482 2.737 0 1.715 0.54 3.304 1.459 4.607l-1.904 1.904c-1.639-1.151-3.038-2.621-4.114-4.323z"></path>
            <path d="M24 13.813c0-0.849-0.133-1.667-0.378-2.434l-10.056 10.056c0.768 0.245 1.586 0.378 2.435 0.378 4.418 0 8-3.582 8-8z"></path>
            <path d="M25.938 9.062l-2.168 2.168c0.040 0.025 0.079 0.049 0.118 0.074 1.88 1.199 3.473 2.805 4.67 4.697-1.197 1.891-2.79 3.498-4.67 4.697-2.362 1.507-5.090 2.303-7.889 2.303-1.208 0-2.403-0.149-3.561-0.439l-2.403 2.403c1.866 0.671 3.873 1.036 5.964 1.036 6.978 0 13.027-4.064 16-10-1.407-2.81-3.504-5.2-6.062-6.938z"></path>
        </symbol>
        <symbol id="icon-notification" viewBox="0 0 32 32">
            <path d="M16 3c-3.472 0-6.737 1.352-9.192 3.808s-3.808 5.72-3.808 9.192c0 3.472 1.352 6.737 3.808 9.192s5.72 3.808 9.192 3.808c3.472 0 6.737-1.352 9.192-3.808s3.808-5.72 3.808-9.192c0-3.472-1.352-6.737-3.808-9.192s-5.72-3.808-9.192-3.808zM16 0v0c8.837 0 16 7.163 16 16s-7.163 16-16 16c-8.837 0-16-7.163-16-16s7.163-16 16-16zM14 22h4v4h-4zM14 6h4v12h-4z"></path>
        </symbol>
        <symbol id="icon-blocked" viewBox="0 0 32 32">
            <path d="M27.314 4.686c-3.022-3.022-7.040-4.686-11.314-4.686s-8.292 1.664-11.314 4.686c-3.022 3.022-4.686 7.040-4.686 11.314s1.664 8.292 4.686 11.314c3.022 3.022 7.040 4.686 11.314 4.686s8.292-1.664 11.314-4.686c3.022-3.022 4.686-7.040 4.686-11.314s-1.664-8.292-4.686-11.314zM28 16c0 2.588-0.824 4.987-2.222 6.949l-16.727-16.727c1.962-1.399 4.361-2.222 6.949-2.222 6.617 0 12 5.383 12 12zM4 16c0-2.588 0.824-4.987 2.222-6.949l16.727 16.727c-1.962 1.399-4.361 2.222-6.949 2.222-6.617 0-12-5.383-12-12z"></path>
        </symbol>
        <symbol id="icon-cancel_black" viewBox="0 0 24 24">
            <path d="M12,2A10,10,0,1,0,22,12,9.991,9.991,0,0,0,12,2Zm5,13.59L15.59,17,12,13.41,8.41,17,7,15.59,10.59,12,7,8.41,8.41,7,12,10.59,15.59,7,17,8.41,13.41,12Z"></path>
        </symbol>
        <symbol id="icon-cancel" viewBox="0 0 50 50">
            <path d="M22.914,2A20.914,20.914,0,1,0,43.828,22.914,20.922,20.922,0,0,0,22.914,2ZM33.371,25.006H12.457V20.823H33.371Z"/>
        </symbol>
        <symbol id="icon-add" viewBox="0 0 40.598 40.598">
            <path id="Add" d="M22.3,2A20.3,20.3,0,1,0,42.6,22.3,20.306,20.306,0,0,0,22.3,2Zm10.15,22.329h-8.12v8.12h-4.06v-8.12H12.15v-4.06h8.12V12.15h4.06v8.12h8.12Z"/>
        </symbol>
        <symbol id="icon-monetary" viewBox="0 0 29 29">
            <path id="Trazado_13795" data-name="Trazado 13795" d="M24.908,3H4.545A2.584,2.584,0,0,0,2,5.606V23.847a2.584,2.584,0,0,0,2.545,2.606H24.908a2.584,2.584,0,0,0,2.545-2.606V5.606A2.584,2.584,0,0,0,24.908,3ZM12.181,21.241H5.818V18.635h6.363Zm0-5.212H5.818V13.424h6.363Zm0-5.212H5.818V8.212h6.363Zm6.134,7.818-3.589-3.7L16.521,13.1l1.794,1.85,4.034-4.13,1.807,1.85Z"></path>
        </symbol>
        <symbol id="icon-conciliation" viewBox="0 0 31 31">
            <path id="Trazado_13853" data-name="Trazado 13853" d="M29,29H2V26.3H29ZM12.8,2H8.75V23.6H12.8Zm9.45,8.1H18.2V23.6h4.05Z"/>
        </symbol>
        <symbol id="icon-monetary-regist" viewBox="0 0 24 24">
            <path id="Trazado_13546" data-name="Trazado 13546" d="M16,18v2H8V18ZM11,7.99V16h2V7.99h3L12,4,8,7.99Z"/>
        </symbol>
        <symbol id="icon-conciliation-head-download" viewBox="0 0 24 24">
            <path id="Trazado_13857" data-name="Trazado 13857" d="M18,15v3H6V15H4v3a2.006,2.006,0,0,0,2,2H18a2.006,2.006,0,0,0,2-2V15Zm-1-4L15.59,9.59,13,12.17V4H11v8.17L8.41,9.59,7,11l5,5Z"/>
        </symbol>
        <symbol id="icon-conciliation-download" viewBox="0 0 24 24">
            <path id="Trazado_13857" data-name="Trazado 13857" d="M18,15v3H6V15H4v3a2.006,2.006,0,0,0,2,2H18a2.006,2.006,0,0,0,2-2V15Zm-1-4L15.59,9.59,13,12.17V4H11v8.17L8.41,9.59,7,11l5,5Z" fill="#fd8524"/>
        </symbol>
        <symbol id="icon-close" viewBox="0 0 24 24">
            <path id="Trazado_13577" data-name="Trazado 13577" d="M0,0H24V24H0Z" fill="none"/>
            <path id="Trazado_13578" data-name="Trazado 13578" d="M14.59,8,12,10.59,9.41,8,8,9.41,10.59,12,8,14.59,9.41,16,12,13.41,14.59,16,16,14.59,13.41,12,16,9.41ZM12,2A10,10,0,1,0,22,12,9.991,9.991,0,0,0,12,2Zm0,18a8,8,0,1,1,8-8A8.011,8.011,0,0,1,12,20Z"/>
        </symbol>
        <symbol id="icon-tag-list" viewBox="0 0 24 24">
            <path id="Trazado_13550" data-name="Trazado 13550" d="M16.54,11,13,7.46l1.41-1.41,2.12,2.12,4.24-4.24,1.41,1.41ZM11,7H2V9h9Zm10,6.41L19.59,12,17,14.59,14.41,12,13,13.41,15.59,16,13,18.59,14.41,20,17,17.41,19.59,20,21,18.59,18.41,16ZM11,15H2v2h9Z"/>
        </symbol>
        <symbol id="icon-massive-adjust" viewBox="0 0 27.115 32.114">
            <path id="Trazado_13551" data-name="Trazado 13551" d="M0,0H24V24H0Z" fill="none"/>
            <path id="Trazado_13552" data-name="Trazado 13552" d="M19.14,12.94A7.074,7.074,0,0,0,19.2,12a5.777,5.777,0,0,0-.07-.94l2.03-1.58a.491.491,0,0,0,.12-.61L19.36,5.55a.488.488,0,0,0-.59-.22l-2.39.96a7.064,7.064,0,0,0-1.62-.94L14.4,2.81a.484.484,0,0,0-.48-.41H10.08a.474.474,0,0,0-.47.41L9.25,5.35a7.22,7.22,0,0,0-1.62.94L5.24,5.33a.477.477,0,0,0-.59.22L2.74,8.87a.455.455,0,0,0,.12.61l2.03,1.58a5.563,5.563,0,0,0-.02,1.88L2.84,14.52a.491.491,0,0,0-.12.61l1.92,3.32a.488.488,0,0,0,.59.22l2.39-.96a7.064,7.064,0,0,0,1.62.94l.36,2.54a.492.492,0,0,0,.48.41h3.84a.466.466,0,0,0,.47-.41l.36-2.54a6.859,6.859,0,0,0,1.62-.94l2.39.96a.477.477,0,0,0,.59-.22l1.92-3.32a.463.463,0,0,0-.12-.61ZM12,15.6A3.6,3.6,0,1,1,15.6,12,3.611,3.611,0,0,1,12,15.6Z"/>
            <path id="Trazado_13551-2" data-name="Trazado 13551" d="M0,0H12V12H0Z" fill="none"/>
            <path id="Trazado_13552-2" data-name="Trazado 13552" d="M10.9,7.67a3.537,3.537,0,0,0,.03-.47,2.888,2.888,0,0,0-.035-.47l1.015-.79a.245.245,0,0,0,.06-.3l-.96-1.66a.244.244,0,0,0-.3-.11l-1.195.48a3.532,3.532,0,0,0-.81-.47l-.18-1.27a.242.242,0,0,0-.24-.205H6.371a.237.237,0,0,0-.235.205l-.18,1.27a3.61,3.61,0,0,0-.81.47l-1.195-.48a.239.239,0,0,0-.3.11L2.7,5.635a.227.227,0,0,0,.06.3l1.015.79a2.782,2.782,0,0,0-.01.94l-1.015.79a.245.245,0,0,0-.06.3l.96,1.66a.244.244,0,0,0,.3.11l1.2-.48a3.532,3.532,0,0,0,.81.47l.18,1.27a.246.246,0,0,0,.24.2h1.92a.233.233,0,0,0,.235-.2l.18-1.27a3.429,3.429,0,0,0,.81-.47l1.195.48a.239.239,0,0,0,.3-.11l.96-1.66a.231.231,0,0,0-.06-.3ZM7.331,9a1.8,1.8,0,1,1,1.8-1.8A1.805,1.805,0,0,1,7.331,9Z" transform="translate(-1.331 -1.2)"/>
        </symbol>
        <symbol id="icon-info" viewBox="0 0 17 17">
            <path d="M7.412 4.118H9.059V5.765H7.412V4.118ZM7.412 7.412H9.059V12.353H7.412V7.412ZM8.235 0C6.60627 0 5.01412 0.482974 3.65988 1.38785C2.30564 2.29272 1.25014 3.57885 0.626856 5.0836C0.00356811 6.58835 -0.159512 8.24413 0.158237 9.84157C0.475986 11.439 1.26029 12.9063 2.41198 14.058C3.56367 15.2097 5.031 15.994 6.62844 16.3118C8.22587 16.6295 9.88165 16.4664 11.3864 15.8431C12.8912 15.2199 14.1773 14.1644 15.0822 12.8101C15.987 11.4559 16.47 9.86373 16.47 8.235C16.4692 6.05119 15.6013 3.95704 14.0571 2.41285C12.513 0.868664 10.4188 0.000795126 8.235 0ZM8.235 14.823C6.93202 14.823 5.6583 14.4366 4.57491 13.7127C3.49152 12.9888 2.64712 11.9599 2.14849 10.7561C1.64986 9.55232 1.51939 8.22769 1.77359 6.94975C2.02779 5.6718 2.65524 4.49793 3.57658 3.57658C4.49793 2.65523 5.6718 2.02779 6.94975 1.77359C8.2277 1.51939 9.55232 1.64985 10.7561 2.14848C11.9599 2.64711 12.9888 3.49151 13.7127 4.5749C14.4366 5.65829 14.823 6.93202 14.823 8.235C14.8198 9.98127 14.1247 11.6551 12.8899 12.8899C11.6551 14.1247 9.98128 14.8198 8.235 14.823Z"/>
        <symbol id="icon-download-file" viewBox="0 0 24 24">
            <path id="Trazado_13867" data-name="Trazado 13867" d="M0,0H24V24H0Z" fill="none"/>
            <path id="Trazado_13868" data-name="Trazado 13868" d="M19,9H15V3H9V9H5l7,7Zm-8,2V5h2v6h1.17L12,13.17,9.83,11ZM5,18H19v2H5Z"/>
        </symbol>
        <symbol id="icon-upload-file" viewBox="0 0 24 24">
            <path id="Trazado_13869" data-name="Trazado 13869" d="M0,0H24V24H0Z" fill="none"/>
            <path id="Trazado_13870" data-name="Trazado 13870" d="M9,16h6V10h4L12,3,5,10H9ZM12,5.83,14.17,8H13v6H11V8H9.83ZM5,18H19v2H5Z"/>
        </symbol>
        <symbol id="icon-dispersion" viewBox="0 0 32 32">
            <path id="Trazado_13873" data-name="Trazado 13873" d="M19,2H7A2.914,2.914,0,0,0,4,4.8V27.2A2.914,2.914,0,0,0,7,30H25a2.914,2.914,0,0,0,3-2.8V10.4ZM7,27.2V4.8H17.5v5.6H25V27.2Zm7.5-1.4h3V24.4H19A1.457,1.457,0,0,0,20.5,23V18.8A1.457,1.457,0,0,0,19,17.4H14.5V16h6V13.2h-3V11.8h-3v1.4H13a1.457,1.457,0,0,0-1.5,1.4v4.2A1.457,1.457,0,0,0,13,20.2h4.5v1.4h-6v2.8h3Z"/>
        </symbol>
    </defs>
</svg>
